<svg version="1.1" id="Layer_1" xmlns="http://www.w3.org/2000/svg" xmlns:xlink="http://www.w3.org/1999/xlink" x="0px" y="0px"
	 width="100%" viewBox="0 0 500 500" enable-background="new 0 0 500 500" xml:space="preserve">
<path fill="#000000" opacity="1.000000" stroke="none" 
	d="
M316.000000,501.000000 
	C210.666687,501.000000 105.833382,501.000000 1.000056,501.000000 
	C1.000037,334.333405 1.000037,167.666794 1.000019,1.000146 
	C167.666565,1.000097 334.333130,1.000097 500.999756,1.000049 
	C500.999847,167.666519 500.999847,334.333038 500.999939,500.999786 
	C439.500000,501.000000 378.000000,501.000000 316.000000,501.000000 
M272.986145,187.986282 
	C272.986145,187.986282 272.983246,187.911087 272.466705,188.072479 
	C272.291779,188.373779 272.116882,188.675079 271.997894,188.984222 
	C271.997894,188.984222 271.951660,188.950790 271.307220,189.024246 
	C270.875153,189.040039 270.443115,189.055832 269.303802,188.623581 
	C271.218475,186.104584 273.133118,183.585571 275.035553,181.004318 
	C275.035553,181.004318 275.024872,181.065094 275.524963,180.917969 
	C275.698181,180.631668 275.871368,180.345383 276.670959,179.806900 
	C278.462708,178.222092 280.254486,176.637268 282.665375,174.812103 
	C284.122009,173.555054 285.578674,172.297989 287.676208,170.760696 
	C291.464111,168.440247 295.252045,166.119781 299.523712,163.884460 
	C299.840576,163.717270 300.015625,163.455307 300.519501,162.987808 
	C300.519501,162.987808 300.975403,162.826584 301.694458,162.766937 
	C307.050507,160.783173 312.406586,158.799408 318.594696,156.950256 
	C321.728577,156.228943 324.862427,155.507629 328.833923,154.915878 
	C332.464233,154.416382 336.094574,153.916885 339.662598,153.425949 
	C339.662598,148.283340 339.662598,143.268402 339.662598,138.179474 
	C335.232666,138.179474 331.136047,138.179474 326.203186,138.038132 
	C323.699738,138.408752 321.196289,138.779373 318.098389,138.524338 
	C318.098389,132.094727 318.098389,125.665108 318.098389,118.771408 
	C311.122192,119.597076 305.158356,121.132782 299.209229,125.028481 
	C294.795685,127.993088 290.382111,130.957687 285.335236,134.181137 
	C283.207489,136.096512 281.079773,138.011871 278.328613,140.187531 
	C276.210938,142.762924 274.093292,145.338318 271.330109,148.214737 
	C268.875732,152.444443 266.421356,156.674133 263.313080,161.239319 
	C261.866058,165.445160 260.419067,169.651001 258.329956,174.170029 
	C258.186371,175.097656 258.042816,176.025269 257.961945,176.975143 
	C257.961945,176.975143 257.934570,176.914444 257.254913,177.280930 
	C255.795044,183.963425 254.446686,190.673340 252.813950,197.313309 
	C252.252670,199.595917 250.981293,201.703903 249.802307,203.268356 
	C248.152390,195.185486 246.502472,187.102631 244.991821,178.265457 
	C244.275452,176.339828 243.678345,174.358856 242.816330,172.500793 
	C241.308060,169.249725 239.637100,166.074112 238.016098,162.089813 
	C235.612137,157.740875 233.208176,153.391953 230.762634,148.360626 
	C228.524475,145.890091 226.286316,143.419556 224.004166,140.993591 
	C224.004166,140.993591 224.066360,140.986389 223.895264,140.484512 
	C223.601913,140.306274 223.308563,140.128036 222.998535,140.000946 
	C222.998535,140.000946 223.049133,139.982666 222.891235,139.481079 
	C222.599594,139.306030 222.307938,139.130981 221.997803,139.001495 
	C221.997803,139.001495 222.043167,138.982498 221.890671,138.480759 
	C221.600601,138.303772 221.310532,138.126770 220.999695,137.999664 
	C220.999695,137.999664 221.049179,137.978073 220.896301,137.480804 
	C220.607895,137.308762 220.319473,137.136719 220.000610,137.000000 
	C220.000610,137.000000 220.034225,136.966660 219.894653,136.470413 
	C219.606857,136.305466 219.319077,136.140503 219.002609,135.998169 
	C219.002609,135.998169 219.023331,135.968765 218.873199,135.478439 
	C218.588165,135.307709 218.303131,135.136978 218.001343,135.001862 
	C218.001343,135.001862 218.030426,134.974487 217.893341,134.469955 
	C217.591949,134.384323 217.290543,134.298706 216.531174,134.041275 
	C216.531174,134.041275 216.055008,133.929276 215.793259,133.302139 
	C213.560211,131.850632 211.327164,130.399124 208.804337,128.300171 
	C201.090515,124.129913 193.712540,119.002792 184.217239,119.032928 
	C184.217239,125.832512 184.217239,131.969559 183.756943,138.748016 
	C182.176193,138.815948 180.595428,138.883881 178.548706,138.222351 
	C173.119522,138.222351 167.690353,138.222351 162.013580,138.222351 
	C162.013580,142.501678 161.811646,146.479416 162.133636,150.414291 
	C162.233398,151.633591 163.610901,153.570618 164.652588,153.752563 
	C170.037201,154.693039 175.502640,155.170761 181.609634,156.098526 
	C182.716721,156.327606 183.823822,156.556686 185.651703,157.119446 
	C192.408356,159.763931 199.164993,162.408417 205.965805,165.026871 
	C205.965805,165.026871 205.950745,165.072937 206.249741,165.683624 
	C207.805496,166.468338 209.361267,167.253052 211.227936,168.662369 
	C212.051254,169.161285 212.925995,169.592377 213.689056,170.170792 
	C217.124710,172.775040 220.528702,175.421066 224.001984,178.006805 
	C224.001984,178.006805 223.940979,178.043533 224.081589,178.533157 
	C224.363312,178.698196 224.645050,178.863235 225.202454,179.645294 
	C227.537338,182.449554 229.872238,185.253815 232.045242,188.724167 
	C232.048019,189.407959 232.050812,190.091751 231.375854,190.831497 
	C229.619675,189.082321 227.791885,187.398651 226.120514,185.571869 
	C220.733368,179.683792 214.700378,174.726074 206.754868,171.321014 
	C202.500687,169.279373 198.246490,167.237732 193.232376,165.014954 
	C190.489273,164.400879 187.746185,163.786819 184.242462,163.022324 
	C181.835052,162.344070 179.427658,161.665833 176.566330,160.368576 
	C173.709885,159.903336 170.853455,159.438095 167.537994,158.340881 
	C163.640350,158.617569 159.724091,158.739380 155.849091,159.204666 
	C148.762589,160.055588 147.758820,161.392731 148.159348,168.664490 
	C148.390045,172.853073 151.155029,175.241348 155.265747,174.729782 
	C157.522736,174.448929 159.765900,174.056931 162.839157,173.796661 
	C167.217957,173.475311 171.596771,173.153976 176.706146,173.177094 
	C180.126678,173.811249 183.547195,174.445404 187.323044,175.728607 
	C190.224976,176.420822 193.126923,177.113052 196.688217,178.128433 
	C200.778275,180.103714 204.868347,182.078995 209.000351,184.001221 
	C209.000351,184.001221 208.950516,184.046478 209.229218,184.657791 
	C210.537064,185.777893 211.844894,186.897995 212.437363,188.136749 
	C211.288986,187.847214 210.140610,187.557678 208.587051,187.028458 
	C208.587051,187.028458 208.125137,186.936462 207.762619,186.277451 
	C206.524414,186.138428 205.286209,185.999390 203.903412,185.403137 
	C203.710968,185.118103 203.443649,184.958206 202.789398,184.322617 
	C201.908127,184.201843 201.026855,184.081085 199.929672,183.469803 
	C199.618896,183.365005 199.308105,183.260223 198.312683,182.807541 
	C189.668137,178.558395 180.480606,177.489471 170.168716,177.977005 
	C159.274414,175.770935 148.718613,177.464691 138.392731,180.984161 
	C135.701157,181.901550 134.869751,191.681259 137.194244,193.211090 
	C137.823090,193.624954 138.755386,193.746857 139.541428,193.726990 
	C148.955536,193.489136 158.378372,192.829697 167.777023,193.085510 
	C172.194138,193.205734 176.564011,195.061127 180.294098,196.557541 
	C178.644333,196.680084 176.995056,196.901352 175.344727,196.909424 
	C163.078110,196.969467 150.798782,196.671692 138.550003,197.156693 
	C132.775513,197.385345 127.059494,199.091080 120.213516,200.326660 
	C126.126587,205.987076 131.244202,210.252335 135.584763,215.199356 
	C141.182007,221.578644 146.971298,226.358292 156.115341,223.042587 
	C156.852631,222.775238 157.774826,222.936844 158.601486,223.009171 
	C170.004654,224.006561 181.521927,224.327377 192.780579,226.200424 
	C209.139603,228.922012 224.487305,235.127579 238.777054,243.473602 
	C246.121399,247.763138 253.254990,248.215195 260.642914,244.993805 
	C267.940125,241.811981 274.785614,237.580597 282.117859,234.495422 
	C304.097412,225.247070 327.023376,221.661926 350.835815,223.788971 
	C353.352692,224.013794 356.764526,224.084930 358.396545,222.662094 
	C365.909607,216.112015 372.944946,209.013290 380.116516,202.075012 
	C380.388611,201.811752 380.298706,201.174271 380.567963,199.591263 
	C371.104980,198.370407 361.816864,196.526459 352.468109,196.136841 
	C341.865784,195.694962 331.209198,196.555618 320.781158,196.048767 
	C325.177612,194.956375 329.574097,193.863983 334.730621,192.904129 
	C335.496002,192.846588 336.261383,192.789047 337.945526,192.886581 
	C342.942963,192.832230 347.940369,192.777863 353.630615,192.857300 
	C354.095795,192.807159 354.560944,192.757034 355.496033,192.848785 
	C355.496033,192.848785 355.969696,192.720154 356.836548,192.882538 
	C358.891296,192.905731 360.946075,192.928925 363.423737,193.524109 
	C368.596039,190.300568 365.505768,185.930710 364.796478,181.378860 
	C364.230255,181.240280 363.664062,181.101685 362.744781,180.344299 
	C360.776642,179.957214 358.808533,179.570129 356.483215,179.525406 
	C356.483215,179.525406 356.820496,179.887405 356.821777,179.788818 
	C356.821777,179.788818 356.775055,179.866867 356.284576,179.193970 
	C356.007141,179.186172 355.729675,179.178360 354.956573,178.558762 
	C346.926208,178.709091 339.108551,175.313538 330.371124,177.015808 
	C329.886780,177.295868 329.402405,177.575912 328.552490,177.910873 
	C328.552490,177.910873 328.183960,177.940567 327.949707,177.451416 
	C327.589539,177.606293 327.229340,177.761169 326.943085,177.916168 
	C326.943085,177.916168 326.917236,177.846909 326.128784,177.961777 
	C321.752747,178.690674 317.376740,179.419571 312.210754,180.013733 
	C309.792908,180.735077 307.375031,181.456421 304.344482,182.049576 
	C303.864166,182.346573 303.383881,182.643585 302.961823,182.963379 
	C302.961823,182.963379 302.926788,182.911301 302.179688,183.008789 
	C296.420593,185.983810 290.661469,188.958847 284.296326,191.976364 
	C283.891815,191.964645 283.487335,191.952927 283.003784,191.305557 
	C283.041931,190.881317 283.080048,190.457092 283.740479,189.776413 
	C285.511963,188.547592 287.283447,187.318787 289.558563,185.921234 
	C289.738556,185.626953 289.918549,185.332672 290.556366,184.965820 
	C290.556366,184.965820 290.995911,184.818680 291.524628,184.904099 
	C291.711517,184.615005 291.898438,184.325928 292.554016,183.955841 
	C292.554016,183.955841 293.007385,183.812042 293.531982,183.901733 
	C293.718170,183.614243 293.904358,183.326752 294.553131,182.969528 
	C294.553131,182.969528 294.999329,182.828934 295.531311,182.915146 
	C295.720428,182.624649 295.909515,182.334152 296.559814,181.970291 
	C296.559814,181.970291 297.006897,181.835312 297.535919,181.925461 
	C297.725708,181.636566 297.915497,181.347656 298.028931,181.023682 
	C298.028931,181.023682 298.071350,181.096222 298.835388,181.025864 
	C303.882050,179.291199 308.928711,177.556534 314.788666,175.711029 
	C319.194427,175.065384 323.600159,174.419754 328.788940,173.940750 
	C329.855225,173.978989 330.921539,174.017227 332.368225,174.758408 
	C335.265961,174.506882 338.160675,174.084335 341.061951,174.033203 
	C354.171387,173.802200 354.175079,173.839737 352.842255,160.989548 
	C352.814697,160.723694 352.471649,160.490540 352.138733,160.068359 
	C347.197021,159.777206 342.113770,159.477737 336.223114,159.320175 
	C333.485138,159.611450 330.747162,159.902710 327.209991,160.038712 
	C323.473389,161.084167 319.736816,162.129623 315.213959,163.045074 
	C309.779388,165.348358 304.344818,167.651642 298.162750,170.005096 
	C292.078003,173.994019 285.993256,177.982941 279.298065,182.240570 
	C277.522675,183.788681 275.747284,185.336807 273.455872,187.070816 
	C273.274231,187.376572 273.092590,187.682312 272.986145,187.986282 
M86.010399,286.499969 
	C86.016495,293.147125 86.070602,299.794769 86.007576,306.441254 
	C85.977951,309.564697 87.324478,311.014526 90.485733,310.981476 
	C96.966003,310.913666 103.459381,311.198730 109.924995,310.882019 
	C116.461403,310.561859 121.909416,307.536041 124.784348,301.602905 
	C127.715500,295.553711 125.712914,289.951874 121.317764,285.140961 
	C120.668083,284.429810 120.010078,283.726227 119.298065,282.956635 
	C120.111855,281.456604 120.855392,280.178223 121.513817,278.857391 
	C125.589417,270.681549 122.828316,261.969269 114.056564,259.777405 
	C106.671410,257.932037 98.679153,258.525421 90.957306,258.014221 
	C87.312111,257.772888 85.900909,259.479065 85.962997,263.066498 
	C86.092361,270.542358 86.006866,278.021942 86.010399,286.499969 
M244.576584,273.305878 
	C240.004181,272.315002 236.240112,273.095215 233.204788,277.200714 
	C230.812836,280.436005 227.696167,283.135529 223.955933,287.066772 
	C223.955933,278.400726 223.933746,270.978760 223.966248,263.557007 
	C223.980347,260.335876 223.666351,257.299133 219.518723,257.128632 
	C215.251770,256.953186 214.886398,260.048218 214.824768,263.237091 
	C214.553116,277.294708 214.261475,291.352020 214.043869,305.410461 
	C214.004089,307.980316 213.391525,311.141754 217.694824,310.939392 
	C221.292938,310.770203 224.373917,310.194641 224.059891,305.354675 
	C223.917358,303.157776 224.492157,300.914337 224.741547,298.692017 
	C225.189621,298.462097 225.637695,298.232208 226.085770,298.002289 
	C229.219437,301.050507 232.555786,303.920288 235.435867,307.191742 
	C239.102493,311.356628 241.982315,312.156799 247.723282,309.621552 
	C247.152908,308.290039 246.773102,306.824402 245.973145,305.643311 
	C243.463043,301.937195 241.016464,298.149445 238.123856,294.752106 
	C235.361954,291.508270 235.335815,288.645447 237.961411,285.502655 
	C239.774353,283.332642 241.738037,281.253906 243.272919,278.898834 
	C244.257935,277.387451 244.586105,275.448029 244.576584,273.305878 
M283.222809,291.673065 
	C284.458160,307.562897 302.496765,316.349152 314.165955,309.709686 
	C319.295563,306.791077 321.384888,304.109589 318.355530,301.039948 
	C316.570068,299.230743 314.350403,297.850098 312.250793,296.218262 
	C311.744812,296.846893 311.355743,297.172363 311.167511,297.588654 
	C309.358337,301.589905 304.653168,303.453217 301.180725,301.153412 
	C300.045319,300.401428 299.257996,298.487061 299.185974,297.060120 
	C299.154388,296.434387 301.287506,295.166473 302.484009,295.105957 
	C307.128082,294.871002 311.792175,294.932861 316.446136,295.022705 
	C320.067688,295.092621 321.475494,293.338074 321.545441,289.852509 
	C321.683380,282.975739 318.133209,276.986725 312.085419,274.277832 
	C305.748047,271.439240 296.055328,272.507019 292.075867,277.325806 
	C288.672638,281.446808 286.237152,286.366974 283.222809,291.673065 
M210.050552,299.370636 
	C212.876846,294.141724 209.139999,281.515991 203.440872,277.295746 
	C196.348404,272.043671 188.706100,270.552795 180.649902,274.791931 
	C173.397690,278.607971 169.928711,286.619995 171.078262,295.882874 
	C171.924774,302.704041 179.049561,309.585327 185.662643,311.021515 
	C196.614914,313.400085 203.764648,308.280670 210.050552,299.370636 
M414.313477,300.879028 
	C411.964081,298.318451 409.921051,299.150024 407.393921,300.967621 
	C401.225830,305.403809 393.540405,302.749481 391.674408,295.331512 
	C393.349426,295.217041 394.936523,295.027161 396.525024,295.014740 
	C402.178925,294.970612 407.840942,294.806305 413.484711,295.045898 
	C417.038513,295.196777 418.357178,293.420593 418.496338,290.379120 
	C418.888062,281.816193 410.255310,272.816223 402.307770,272.618469 
	C388.491425,272.274719 381.142242,281.080872 381.931122,293.183746 
	C382.443207,301.039551 386.004395,307.137665 392.566864,309.685028 
	C400.460876,312.749268 410.030792,311.239929 414.780487,305.819183 
	C415.519318,304.976013 414.826538,302.878448 414.313477,300.879028 
M139.241180,274.480011 
	C131.575409,279.041962 128.055344,285.928497 129.170258,294.624603 
	C130.195312,302.619873 134.425079,308.477692 142.791901,310.542450 
	C149.916107,312.300537 156.516968,311.135193 161.859085,306.153015 
	C167.197968,301.173859 169.081421,294.794037 167.334747,287.490479 
	C164.410797,275.264435 153.452927,269.914276 139.241180,274.480011 
M271.580109,284.005890 
	C271.000244,288.433228 268.694916,290.609009 263.988068,289.845123 
	C262.343262,285.287903 260.762726,280.760010 259.074463,276.272644 
	C257.347076,271.681366 253.318436,272.497467 250.203934,273.455261 
	C246.313782,274.651642 248.949036,277.551239 249.757156,279.613220 
	C253.242416,288.506226 257.080933,297.268250 260.297180,306.254608 
	C261.226776,308.851898 261.670776,310.970001 264.849579,310.956299 
	C268.205444,310.941803 271.037231,310.768250 273.235443,307.127106 
	C276.981567,300.921967 276.920715,292.758057 283.231720,287.931824 
	C283.520142,287.711243 283.481354,287.032410 283.550476,286.560486 
	C284.012177,283.409180 284.640350,280.266632 284.827454,277.098389 
	C284.902313,275.831177 284.151794,273.475128 283.511353,273.378693 
	C279.988861,272.848297 276.095428,271.900482 274.746216,277.130157 
	C274.178925,279.329041 272.737946,281.302490 271.580109,284.005890 
M350.502838,282.190979 
	C349.788208,288.678864 352.468201,293.047241 358.309052,294.845276 
	C360.691162,295.578613 363.174652,296.048950 365.461975,296.999847 
	C366.909546,297.601654 368.080048,298.869934 369.402283,299.859833 
	C364.824249,304.132050 360.618439,303.520966 356.547760,300.701691 
	C353.472076,298.571503 351.995789,301.090668 351.128510,302.865601 
	C350.525024,304.100616 351.084259,307.130188 352.091309,307.727539 
	C358.822815,311.720612 365.952576,313.133881 373.346466,309.254364 
	C377.052521,307.309875 379.016296,304.389771 379.030548,300.057892 
	C379.044739,295.736938 377.212372,292.571991 373.426575,290.840851 
	C370.125824,289.331421 366.484406,288.571930 363.165314,287.095032 
	C361.930267,286.545441 361.182739,284.900208 360.212921,283.754608 
	C361.637726,282.884338 363.118744,281.218658 364.475342,281.314484 
	C367.055084,281.496704 369.556091,283.226379 372.104614,283.262329 
	C373.730225,283.285217 375.676788,281.677246 376.894806,280.287933 
	C377.477539,279.623230 377.202515,277.262543 376.463531,276.530029 
	C369.548523,269.675751 354.618530,272.617218 350.502838,282.190979 
M340.322968,273.496979 
	C338.443359,273.539551 336.349243,274.143616 334.723328,273.522278 
	C329.256073,271.433105 326.175507,273.400879 326.380890,279.197144 
	C326.439392,280.848267 326.203064,282.507690 326.199341,284.163544 
	C326.179199,293.057465 326.189850,301.951447 326.189850,310.995514 
	C327.873840,310.995514 329.032318,310.869019 330.154449,311.017456 
	C334.961700,311.653320 336.737152,309.525543 336.358887,304.824341 
	C336.026550,300.694000 335.913025,296.525299 336.038605,292.383728 
	C336.226624,286.180908 338.386475,284.103973 344.383667,282.739868 
	C345.775391,282.423309 347.676117,280.586823 347.838989,279.264526 
	C348.614807,272.965637 347.307495,271.974335 340.322968,273.496979 
z"/>
<path fill="#15122B" opacity="1.000000" stroke="none" 
	d="
M320.576202,196.849976 
	C331.209198,196.555618 341.865784,195.694962 352.468109,196.136841 
	C361.816864,196.526459 371.104980,198.370407 380.567963,199.591263 
	C380.298706,201.174271 380.388611,201.811752 380.116516,202.075012 
	C372.944946,209.013290 365.909607,216.112015 358.396545,222.662094 
	C356.764526,224.084930 353.352692,224.013794 350.835815,223.788971 
	C327.023376,221.661926 304.097412,225.247070 282.117859,234.495422 
	C274.785614,237.580597 267.940125,241.811981 260.642914,244.993805 
	C253.254990,248.215195 246.121399,247.763138 238.777054,243.473602 
	C224.487305,235.127579 209.139603,228.922012 192.780579,226.200424 
	C181.521927,224.327377 170.004654,224.006561 158.601486,223.009171 
	C157.774826,222.936844 156.852631,222.775238 156.115341,223.042587 
	C146.971298,226.358292 141.182007,221.578644 135.584763,215.199356 
	C131.244202,210.252335 126.126587,205.987076 120.213516,200.326660 
	C127.059494,199.091080 132.775513,197.385345 138.550003,197.156693 
	C150.798782,196.671692 163.078110,196.969467 175.344727,196.909424 
	C176.995056,196.901352 178.644333,196.680084 181.008698,196.332642 
	C185.127823,196.920090 188.532364,197.732437 192.347900,198.597504 
	C193.227371,198.429337 193.695831,198.208466 194.329193,198.299652 
	C195.626877,199.111496 196.759644,199.611252 198.371109,200.299652 
	C199.832458,200.344772 200.815125,200.201294 201.775391,200.362518 
	C202.161911,201.006088 202.570816,201.344940 203.321472,201.846039 
	C209.443390,204.177322 215.223557,206.346344 221.189499,208.729370 
	C221.559830,208.983780 221.744370,209.024216 222.030396,209.314316 
	C222.761017,209.779938 223.390167,209.995895 224.243240,210.460876 
	C224.879791,210.866669 225.292419,211.023483 225.802505,211.460388 
	C226.590591,212.043533 227.281235,212.346619 228.124664,212.847595 
	C228.439682,213.083939 228.601883,213.122360 228.883392,213.417374 
	C229.653214,213.985397 230.303726,214.296829 231.174408,214.884460 
	C237.418747,219.530807 243.400146,223.962753 249.518845,228.196259 
	C250.322525,228.752335 252.176422,228.781311 252.955765,228.227203 
	C260.069611,223.169327 267.053101,217.928116 274.417877,212.820587 
	C276.486847,211.940659 278.217957,210.989975 279.937592,210.018982 
	C292.591431,202.874207 306.104309,198.383087 320.576202,196.849976 
z"/>
<path fill="#161224" opacity="1.000000" stroke="none" 
	d="
M86.010033,286.000000 
	C86.006866,278.021942 86.092361,270.542358 85.962997,263.066498 
	C85.900909,259.479065 87.312111,257.772888 90.957306,258.014221 
	C98.679153,258.525421 106.671410,257.932037 114.056564,259.777405 
	C122.828316,261.969269 125.589417,270.681549 121.513817,278.857391 
	C120.855392,280.178223 120.111855,281.456604 119.298065,282.956635 
	C120.010078,283.726227 120.668083,284.429810 121.317764,285.140961 
	C125.712914,289.951874 127.715500,295.553711 124.784348,301.602905 
	C121.909416,307.536041 116.461403,310.561859 109.924995,310.882019 
	C103.459381,311.198730 96.966003,310.913666 90.485733,310.981476 
	C87.324478,311.014526 85.977951,309.564697 86.007576,306.441254 
	C86.070602,299.794769 86.016495,293.147125 86.010033,286.000000 
M95.062538,295.807343 
	C95.249390,299.933868 96.134277,302.988281 101.547104,301.674622 
	C104.542656,300.947632 107.976677,301.735992 110.806175,300.714355 
	C112.827988,299.984344 115.326485,297.488342 115.503738,295.584045 
	C115.689484,293.588593 113.773376,290.054718 112.039757,289.501923 
	C108.392990,288.339111 104.260521,288.425262 100.335052,288.486755 
	C96.304100,288.549927 94.339958,290.844971 95.062538,295.807343 
M96.143806,267.487213 
	C92.652855,276.107056 94.429153,279.013702 103.189880,279.016205 
	C104.181038,279.016479 105.173248,278.983612 106.163177,279.017883 
	C109.783295,279.143280 112.858063,278.632233 113.009445,273.971283 
	C113.143677,269.838593 110.990189,267.370667 106.378937,267.081238 
	C103.258522,266.885376 100.110931,267.122589 96.143806,267.487213 
z"/>
<path fill="#141423" opacity="1.000000" stroke="none" 
	d="
M244.892639,273.503174 
	C244.586105,275.448029 244.257935,277.387451 243.272919,278.898834 
	C241.738037,281.253906 239.774353,283.332642 237.961411,285.502655 
	C235.335815,288.645447 235.361954,291.508270 238.123856,294.752106 
	C241.016464,298.149445 243.463043,301.937195 245.973145,305.643311 
	C246.773102,306.824402 247.152908,308.290039 247.723282,309.621552 
	C241.982315,312.156799 239.102493,311.356628 235.435867,307.191742 
	C232.555786,303.920288 229.219437,301.050507 226.085770,298.002289 
	C225.637695,298.232208 225.189621,298.462097 224.741547,298.692017 
	C224.492157,300.914337 223.917358,303.157776 224.059891,305.354675 
	C224.373917,310.194641 221.292938,310.770203 217.694824,310.939392 
	C213.391525,311.141754 214.004089,307.980316 214.043869,305.410461 
	C214.261475,291.352020 214.553116,277.294708 214.824768,263.237091 
	C214.886398,260.048218 215.251770,256.953186 219.518723,257.128632 
	C223.666351,257.299133 223.980347,260.335876 223.966248,263.557007 
	C223.933746,270.978760 223.955933,278.400726 223.955933,287.066772 
	C227.696167,283.135529 230.812836,280.436005 233.204788,277.200714 
	C236.240112,273.095215 240.004181,272.315002 244.892639,273.503174 
z"/>
<path fill="#141423" opacity="1.000000" stroke="none" 
	d="
M283.298218,291.303375 
	C286.237152,286.366974 288.672638,281.446808 292.075867,277.325806 
	C296.055328,272.507019 305.748047,271.439240 312.085419,274.277832 
	C318.133209,276.986725 321.683380,282.975739 321.545441,289.852509 
	C321.475494,293.338074 320.067688,295.092621 316.446136,295.022705 
	C311.792175,294.932861 307.128082,294.871002 302.484009,295.105957 
	C301.287506,295.166473 299.154388,296.434387 299.185974,297.060120 
	C299.257996,298.487061 300.045319,300.401428 301.180725,301.153412 
	C304.653168,303.453217 309.358337,301.589905 311.167511,297.588654 
	C311.355743,297.172363 311.744812,296.846893 312.250793,296.218262 
	C314.350403,297.850098 316.570068,299.230743 318.355530,301.039948 
	C321.384888,304.109589 319.295563,306.791077 314.165955,309.709686 
	C302.496765,316.349152 284.458160,307.562897 283.298218,291.303375 
M299.317352,282.417908 
	C298.562134,283.521210 296.955627,284.996124 297.239258,285.645874 
	C297.739319,286.791351 299.409637,288.175690 300.560120,288.149414 
	C304.276611,288.064575 307.979492,287.383484 312.878510,286.787231 
	C308.624786,281.193207 304.700439,280.375336 299.317352,282.417908 
z"/>
<path fill="#141423" opacity="1.000000" stroke="none" 
	d="
M209.828735,299.671051 
	C203.764648,308.280670 196.614914,313.400085 185.662643,311.021515 
	C179.049561,309.585327 171.924774,302.704041 171.078262,295.882874 
	C169.928711,286.619995 173.397690,278.607971 180.649902,274.791931 
	C188.706100,270.552795 196.348404,272.043671 203.440872,277.295746 
	C209.139999,281.515991 212.876846,294.141724 209.828735,299.671051 
M199.161560,290.921021 
	C199.003571,284.581696 195.713394,281.741089 188.805054,281.979736 
	C183.712265,282.155609 179.810120,286.645325 180.026825,292.079712 
	C180.202194,296.477814 185.486969,302.312317 189.269516,302.283813 
	C195.176590,302.239319 199.443283,297.604309 199.161560,290.921021 
z"/>
<path fill="#161022" opacity="1.000000" stroke="none" 
	d="
M414.554626,301.119995 
	C414.826538,302.878448 415.519318,304.976013 414.780487,305.819183 
	C410.030792,311.239929 400.460876,312.749268 392.566864,309.685028 
	C386.004395,307.137665 382.443207,301.039551 381.931122,293.183746 
	C381.142242,281.080872 388.491425,272.274719 402.307770,272.618469 
	C410.255310,272.816223 418.888062,281.816193 418.496338,290.379120 
	C418.357178,293.420593 417.038513,295.196777 413.484711,295.045898 
	C407.840942,294.806305 402.178925,294.970612 396.525024,295.014740 
	C394.936523,295.027161 393.349426,295.217041 391.674408,295.331512 
	C393.540405,302.749481 401.225830,305.403809 407.393921,300.967621 
	C409.921051,299.150024 411.964081,298.318451 414.554626,301.119995 
M407.343628,284.105957 
	C403.907684,281.154510 400.023132,279.935730 395.951630,282.329651 
	C394.203705,283.357361 393.114655,285.505646 391.022522,287.975677 
	C397.000977,287.975677 401.303772,287.965637 405.606537,287.979645 
	C408.018280,287.987457 409.162109,287.195831 407.343628,284.105957 
z"/>
<path fill="#161224" opacity="1.000000" stroke="none" 
	d="
M139.600693,274.339783 
	C153.452927,269.914276 164.410797,275.264435 167.334747,287.490479 
	C169.081421,294.794037 167.197968,301.173859 161.859085,306.153015 
	C156.516968,311.135193 149.916107,312.300537 142.791901,310.542450 
	C134.425079,308.477692 130.195312,302.619873 129.170258,294.624603 
	C128.055344,285.928497 131.575409,279.041962 139.600693,274.339783 
M157.516510,294.624451 
	C158.886810,285.489777 155.293503,281.290741 146.710495,281.996796 
	C140.929276,282.472382 137.378510,287.240540 138.019150,293.668091 
	C138.539413,298.887909 142.908173,301.965637 148.138245,302.217529 
	C153.546051,302.477966 155.268188,299.077576 157.516510,294.624451 
z"/>
<path fill="#FA787C" opacity="1.000000" stroke="none" 
	d="
M184.217224,138.106613 
	C184.217239,131.969559 184.217239,125.832512 184.217239,119.032928 
	C193.712540,119.002792 201.090515,124.129913 208.548920,128.643921 
	C204.308762,129.073303 203.876831,131.918945 204.035629,134.850952 
	C204.581146,144.922775 205.280762,154.986237 205.921646,165.052887 
	C199.164993,162.408417 192.408356,159.763931 185.297058,156.498199 
	C184.700699,149.953506 184.458969,144.030060 184.217224,138.106613 
z"/>
<path fill="#141423" opacity="1.000000" stroke="none" 
	d="
M271.637085,283.692169 
	C272.737946,281.302490 274.178925,279.329041 274.746216,277.130157 
	C276.095428,271.900482 279.988861,272.848297 283.511353,273.378693 
	C284.151794,273.475128 284.902313,275.831177 284.827454,277.098389 
	C284.640350,280.266632 284.012177,283.409180 283.550476,286.560486 
	C283.481354,287.032410 283.520142,287.711243 283.231720,287.931824 
	C276.920715,292.758057 276.981567,300.921967 273.235443,307.127106 
	C271.037231,310.768250 268.205444,310.941803 264.849579,310.956299 
	C261.670776,310.970001 261.226776,308.851898 260.297180,306.254608 
	C257.080933,297.268250 253.242416,288.506226 249.757156,279.613220 
	C248.949036,277.551239 246.313782,274.651642 250.203934,273.455261 
	C253.318436,272.497467 257.347076,271.681366 259.074463,276.272644 
	C260.762726,280.760010 262.343262,285.287903 263.988068,289.845123 
	C268.694916,290.609009 271.000244,288.433228 271.637085,283.692169 
z"/>
<path fill="#161022" opacity="1.000000" stroke="none" 
	d="
M350.627136,281.824097 
	C354.618530,272.617218 369.548523,269.675751 376.463531,276.530029 
	C377.202515,277.262543 377.477539,279.623230 376.894806,280.287933 
	C375.676788,281.677246 373.730225,283.285217 372.104614,283.262329 
	C369.556091,283.226379 367.055084,281.496704 364.475342,281.314484 
	C363.118744,281.218658 361.637726,282.884338 360.212921,283.754608 
	C361.182739,284.900208 361.930267,286.545441 363.165314,287.095032 
	C366.484406,288.571930 370.125824,289.331421 373.426575,290.840851 
	C377.212372,292.571991 379.044739,295.736938 379.030548,300.057892 
	C379.016296,304.389771 377.052521,307.309875 373.346466,309.254364 
	C365.952576,313.133881 358.822815,311.720612 352.091309,307.727539 
	C351.084259,307.130188 350.525024,304.100616 351.128510,302.865601 
	C351.995789,301.090668 353.472076,298.571503 356.547760,300.701691 
	C360.618439,303.520966 364.824249,304.132050 369.402283,299.859833 
	C368.080048,298.869934 366.909546,297.601654 365.461975,296.999847 
	C363.174652,296.048950 360.691162,295.578613 358.309052,294.845276 
	C352.468201,293.047241 349.788208,288.678864 350.627136,281.824097 
z"/>
<path fill="#FC856D" opacity="1.000000" stroke="none" 
	d="
M285.968567,133.922287 
	C290.382111,130.957687 294.795685,127.993088 299.928772,125.074539 
	C304.111389,126.397232 305.332458,128.467667 304.562531,132.412201 
	C303.960388,135.497238 304.830170,138.869919 305.048828,142.114594 
	C305.122772,143.212097 305.476227,144.371368 305.239960,145.395844 
	C303.895782,151.223938 302.411804,157.019775 300.975403,162.826584 
	C300.975403,162.826584 300.519501,162.987808 300.092529,163.120926 
	C299.418121,163.391129 299.209564,163.572891 299.039978,163.799316 
	C295.252045,166.119781 291.464111,168.440247 287.089478,170.665833 
	C282.934235,169.154160 282.327026,166.838882 283.954132,163.421814 
	C284.701599,161.851990 284.756073,159.925247 284.990295,158.142700 
	C285.964081,150.731522 282.884705,143.038193 286.537445,135.783005 
	C286.748230,135.364349 286.176239,134.551620 285.968567,133.922287 
z"/>
<path fill="#B98FCB" opacity="1.000000" stroke="none" 
	d="
M228.764069,213.160782 
	C228.601883,213.122360 228.439682,213.083939 228.021027,212.569611 
	C227.078049,211.789246 226.391556,211.484756 225.705048,211.180298 
	C225.292419,211.023483 224.879791,210.866669 224.116089,210.239410 
	C223.152969,209.534195 222.540939,209.299423 221.928909,209.064651 
	C221.744370,209.024216 221.559830,208.983780 221.106567,208.431290 
	C219.217194,206.616562 217.596542,205.313904 216.135681,203.691437 
	C218.513397,198.345001 216.753845,191.791794 212.701569,191.606705 
	C209.162415,191.445053 209.017548,189.739426 208.992233,187.268143 
	C210.140610,187.557678 211.288986,187.847214 213.044907,188.291199 
	C215.433029,189.268616 217.213623,190.091599 219.243530,191.050858 
	C219.991867,191.458405 220.490891,191.729675 220.999390,192.291855 
	C222.335403,193.390167 223.661972,194.197571 224.993378,195.003204 
	C224.998230,195.001434 224.994293,195.011703 225.059799,195.345810 
	C225.710419,196.460251 226.242966,197.287308 226.888763,198.013702 
	C233.220612,205.135406 241.423065,210.541504 245.581879,219.673157 
	C248.742538,226.613144 251.889999,226.488266 256.729706,220.596237 
	C262.880646,213.107880 269.382568,205.902908 275.867157,198.696304 
	C278.062866,196.256088 280.665924,194.182388 283.082825,191.941208 
	C283.487335,191.952927 283.891815,191.964645 284.791107,192.194397 
	C283.864716,197.279373 282.443542,202.146317 280.733490,207.188614 
	C278.321289,209.156128 276.197968,210.948273 274.074677,212.740433 
	C267.053101,217.928116 260.069611,223.169327 252.955765,228.227203 
	C252.176422,228.781311 250.322525,228.752335 249.518845,228.196259 
	C243.400146,223.962753 237.418747,219.530807 231.080292,214.610291 
	C230.098679,213.760208 229.431381,213.460495 228.764069,213.160782 
z"/>
<path fill="#8085C6" opacity="1.000000" stroke="none" 
	d="
M191.936890,198.544769 
	C188.532364,197.732437 185.127823,196.920090 181.339294,196.118988 
	C176.564011,195.061127 172.194138,193.205734 167.777023,193.085510 
	C158.378372,192.829697 148.955536,193.489136 139.541428,193.726990 
	C138.755386,193.746857 137.823090,193.624954 137.194244,193.211090 
	C134.869751,191.681259 135.701157,181.901550 138.392731,180.984161 
	C148.718613,177.464691 159.274414,175.770935 170.576721,178.273422 
	C170.984711,178.569839 170.980850,178.995956 170.831390,179.236542 
	C172.403687,181.743668 173.422318,183.879639 171.722626,186.873276 
	C170.028671,189.856842 171.199509,191.745529 174.858719,192.278000 
	C179.271011,192.920044 183.614426,194.035522 188.290543,195.089203 
	C189.707916,196.336487 190.822403,197.440628 191.936890,198.544769 
z"/>
<path fill="#FA787C" opacity="1.000000" stroke="none" 
	d="
M301.334930,162.796753 
	C302.411804,157.019775 303.895782,151.223938 305.239960,145.395844 
	C305.476227,144.371368 305.122772,143.212097 305.048828,142.114594 
	C304.830170,138.869919 303.960388,135.497238 304.562531,132.412201 
	C305.332458,128.467667 304.111389,126.397232 300.292389,125.034775 
	C305.158356,121.132782 311.122192,119.597076 318.098389,118.771408 
	C318.098389,125.665108 318.098389,132.094727 318.357086,139.237152 
	C318.331421,145.571854 318.047028,151.193756 317.762634,156.815659 
	C312.406586,158.799408 307.050507,160.783173 301.334930,162.796753 
z"/>
<path fill="#F9A065" opacity="1.000000" stroke="none" 
	d="
M230.804199,149.043015 
	C233.208176,153.391953 235.612137,157.740875 237.997833,162.856476 
	C237.807617,164.603378 237.348373,165.634293 237.510941,166.555511 
	C238.471329,171.997528 239.409821,177.453415 240.680252,182.827896 
	C241.898666,187.982224 240.451752,190.429611 235.058838,191.395813 
	C234.105698,190.285477 233.156403,189.171768 232.207123,188.058075 
	C229.872238,185.253815 227.537338,182.449554 224.937103,179.139862 
	C224.468063,178.388153 224.224457,178.191193 223.940979,178.043533 
	C223.940979,178.043533 224.001984,178.006805 223.982605,177.627029 
	C223.528763,174.210052 222.749420,171.173935 222.739777,168.135376 
	C222.724945,163.457291 223.250854,158.778259 223.522980,154.098206 
	C223.718582,150.734070 223.874466,147.367599 224.336395,144.181412 
	C227.308273,145.098267 226.031219,151.062866 230.804199,149.043015 
z"/>
<path fill="#161224" opacity="1.000000" stroke="none" 
	d="
M340.668823,273.381683 
	C347.307495,271.974335 348.614807,272.965637 347.838989,279.264526 
	C347.676117,280.586823 345.775391,282.423309 344.383667,282.739868 
	C338.386475,284.103973 336.226624,286.180908 336.038605,292.383728 
	C335.913025,296.525299 336.026550,300.694000 336.358887,304.824341 
	C336.737152,309.525543 334.961700,311.653320 330.154449,311.017456 
	C329.032318,310.869019 327.873840,310.995514 326.189850,310.995514 
	C326.189850,301.951447 326.179199,293.057465 326.199341,284.163544 
	C326.203064,282.507690 326.439392,280.848267 326.380890,279.197144 
	C326.175507,273.400879 329.256073,271.433105 334.723328,273.522278 
	C336.349243,274.143616 338.443359,273.539551 340.668823,273.381683 
z"/>
<path fill="#DD92C2" opacity="1.000000" stroke="none" 
	d="
M283.043304,191.623383 
	C280.665924,194.182388 278.062866,196.256088 275.867157,198.696304 
	C269.382568,205.902908 262.880646,213.107880 256.729706,220.596237 
	C251.889999,226.488266 248.742538,226.613144 245.581879,219.673157 
	C241.423065,210.541504 233.220612,205.135406 226.888763,198.013702 
	C226.242966,197.287308 225.710419,196.460251 225.417603,195.406845 
	C229.820526,196.426483 233.931152,197.719193 238.326721,199.131317 
	C239.450439,199.843567 240.289200,200.436386 241.159241,201.384857 
	C242.771454,204.179382 244.352417,206.618256 245.933197,209.455719 
	C247.300339,213.528702 248.667694,217.203125 250.035034,220.877533 
	C250.781799,220.866653 251.528580,220.855789 252.275345,220.844910 
	C254.570084,214.689423 256.864807,208.533920 259.417236,202.159958 
	C261.825897,199.022919 263.976837,196.104340 266.285217,193.023712 
	C266.896851,191.989853 267.351074,191.118042 267.981140,190.469940 
	C268.799103,190.129517 269.441223,189.565338 270.045593,188.998581 
	C270.007812,188.996002 270.011047,189.071640 270.011047,189.071640 
	C270.443115,189.055832 270.875153,189.040039 271.626404,189.351440 
	C269.809021,192.812271 267.672455,195.945892 265.535889,199.079529 
	C265.836029,199.487762 266.136169,199.896011 266.436310,200.304245 
	C271.286896,197.200638 276.137482,194.097046 281.184845,190.857758 
	C281.629211,190.516205 281.835571,190.275055 282.000366,189.999298 
	C282.000000,190.000000 281.998779,190.000000 282.278595,190.009109 
	C282.745026,190.023102 282.931610,190.027985 283.118195,190.032852 
	C283.080048,190.457092 283.041931,190.881317 283.043304,191.623383 
z"/>
<path fill="#7F89D1" opacity="1.000000" stroke="none" 
	d="
M363.097839,180.963089 
	C363.664062,181.101685 364.230255,181.240280 364.840149,182.023361 
	C364.791504,184.232071 364.859924,185.827240 364.566071,187.352631 
	C364.200775,189.249252 363.536163,191.088226 363.000824,192.952103 
	C360.946075,192.928925 358.891296,192.905731 356.299316,192.711502 
	C355.483521,192.426392 355.238190,192.481873 355.026123,192.706894 
	C354.560944,192.757034 354.095795,192.807159 352.924561,192.607178 
	C347.154602,192.481888 342.090698,192.606689 337.026764,192.731506 
	C336.261383,192.789047 335.496002,192.846588 334.146393,192.635254 
	C333.548981,190.751297 333.765503,189.094727 333.482666,187.528336 
	C332.292084,180.935089 332.937958,180.167297 339.718658,179.964355 
	C344.966400,179.807281 350.207947,179.442825 355.452240,179.170547 
	C355.729675,179.178360 356.007141,179.186172 356.333130,179.419144 
	C356.527924,179.725342 356.674225,179.806366 356.820496,179.887390 
	C356.820496,179.887405 356.483215,179.525406 356.821533,179.677399 
	C359.139160,180.207291 361.118500,180.585190 363.097839,180.963089 
z"/>
<path fill="#8085C6" opacity="1.000000" stroke="none" 
	d="
M355.204407,178.864655 
	C350.207947,179.442825 344.966400,179.807281 339.718658,179.964355 
	C332.937958,180.167297 332.292084,180.935089 333.482666,187.528336 
	C333.765503,189.094727 333.548981,190.751297 333.766357,192.569000 
	C329.574097,193.863983 325.177612,194.956375 320.678680,196.449371 
	C306.104309,198.383087 292.591431,202.874207 279.937592,210.018982 
	C278.217957,210.989975 276.486847,211.940659 274.417877,212.820587 
	C276.197968,210.948273 278.321289,209.156128 281.060394,207.052200 
	C285.759766,205.057648 289.843323,203.374863 294.291565,201.724121 
	C299.113495,200.142227 303.570801,198.528275 308.398193,196.863861 
	C315.120728,195.135895 320.898041,192.967743 321.241241,184.860809 
	C321.290070,183.706955 322.914612,182.611069 323.829895,181.504913 
	C324.847046,180.275665 325.887115,179.065414 326.917236,177.846909 
	C326.917236,177.846909 326.943085,177.916168 327.234985,177.940521 
	C327.745880,177.956787 327.964905,177.948669 328.183960,177.940567 
	C328.183960,177.940567 328.552490,177.910873 328.917297,178.065735 
	C329.847656,177.853821 330.413239,177.487030 330.978821,177.120239 
	C339.108551,175.313538 346.926208,178.709091 355.204407,178.864655 
z"/>
<path fill="#FC856D" opacity="1.000000" stroke="none" 
	d="
M205.943726,165.039886 
	C205.280762,154.986237 204.581146,144.922775 204.035629,134.850952 
	C203.876831,131.918945 204.308762,129.073303 208.693802,128.967636 
	C211.327164,130.399124 213.560211,131.850632 215.762756,133.938446 
	C215.496811,136.916779 215.203857,139.254959 215.045883,141.602219 
	C214.938126,143.203491 215.092285,144.821625 215.001129,146.424942 
	C214.768478,150.516861 213.761475,154.716125 214.387314,158.662628 
	C215.004257,162.553040 214.339813,165.081131 210.820435,166.703156 
	C209.054367,165.969025 207.502563,165.520981 205.950745,165.072937 
	C205.950745,165.072937 205.965805,165.026871 205.943726,165.039886 
z"/>
<path fill="#FA9167" opacity="1.000000" stroke="none" 
	d="
M211.034668,166.989243 
	C214.339813,165.081131 215.004257,162.553040 214.387314,158.662628 
	C213.761475,154.716125 214.768478,150.516861 215.001129,146.424942 
	C215.092285,144.821625 214.938126,143.203491 215.045883,141.602219 
	C215.203857,139.254959 215.496811,136.916779 215.893631,134.252014 
	C216.055008,133.929276 216.531174,134.041275 216.913605,134.280273 
	C217.524277,134.697708 217.769073,134.849442 218.030426,134.974487 
	C218.030426,134.974487 218.001343,135.001862 218.157501,135.170563 
	C218.524857,135.577698 218.761414,135.787521 219.023331,135.968765 
	C219.023331,135.968765 219.002609,135.998169 219.161194,136.174118 
	C219.530823,136.587006 219.768967,136.792526 220.034225,136.966660 
	C220.034225,136.966660 220.000610,137.000000 220.164062,137.171936 
	C220.541794,137.585144 220.782349,137.796555 221.049179,137.978073 
	C221.049179,137.978073 220.999695,137.999664 221.158478,138.168106 
	C221.531754,138.582733 221.773727,138.798050 222.043167,138.982498 
	C222.043167,138.982498 221.997803,139.001495 222.157013,139.171371 
	C222.533081,139.586426 222.777374,139.800232 223.049133,139.982666 
	C223.049133,139.982666 222.998535,140.000946 223.159851,140.169800 
	C223.543762,140.584290 223.792145,140.800201 224.066360,140.986389 
	C224.066360,140.986389 224.004166,140.993591 224.016418,141.352676 
	C224.035141,142.475235 224.041611,143.238708 224.048065,144.002182 
	C223.874466,147.367599 223.718582,150.734070 223.522980,154.098206 
	C223.250854,158.778259 222.724945,163.457291 222.739777,168.135376 
	C222.749420,171.173935 223.528763,174.210052 223.953674,177.649658 
	C220.528702,175.421066 217.124710,172.775040 213.689056,170.170792 
	C212.925995,169.592377 212.051254,169.161285 211.104645,168.088455 
	C210.999130,167.339447 211.016891,167.164337 211.034668,166.989243 
z"/>
<path fill="#9A8BCB" opacity="1.000000" stroke="none" 
	d="
M170.980850,178.995956 
	C170.980850,178.995956 170.984711,178.569839 170.991760,178.356903 
	C180.480606,177.489471 189.668137,178.558395 198.822418,183.147705 
	C199.585342,183.676270 199.856476,183.833755 200.145584,183.960312 
	C201.026855,184.081085 201.908127,184.201843 202.717834,184.891937 
	C202.689606,187.231125 203.376358,189.332596 202.664688,190.713287 
	C199.619339,196.621429 204.683838,198.290298 207.801163,200.563019 
	C210.127502,202.259109 213.222931,202.900284 215.975876,204.011230 
	C217.596542,205.313904 219.217194,206.616562 220.920792,208.217316 
	C215.223557,206.346344 209.443390,204.177322 203.313766,201.652100 
	C202.575470,200.883194 202.186630,200.470505 201.797791,200.057816 
	C200.815125,200.201294 199.832458,200.344772 198.322968,200.062195 
	C196.585526,199.086624 195.374908,198.537094 194.164291,197.987579 
	C193.695831,198.208466 193.227371,198.429337 192.347900,198.597504 
	C190.822403,197.440628 189.707916,196.336487 188.287659,194.674377 
	C186.201843,181.931366 186.202194,181.929565 174.357025,179.596375 
	C173.235718,179.375519 172.106430,179.195145 170.980850,178.995956 
z"/>
<path fill="#F9A065" opacity="1.000000" stroke="none" 
	d="
M282.046265,175.052460 
	C280.254486,176.637268 278.462708,178.222092 276.161072,180.069824 
	C275.404755,180.544693 275.195984,180.788803 275.024872,181.065094 
	C275.024872,181.065094 275.035553,181.004318 274.643799,181.017365 
	C272.725952,180.873154 271.199890,180.715912 269.632263,180.554367 
	C270.106140,178.320175 271.110352,176.518097 270.662018,175.216293 
	C268.062103,167.667557 270.200775,160.465683 271.689087,153.167587 
	C272.035767,151.467514 271.893097,149.667648 271.975616,147.913712 
	C274.093292,145.338318 276.210938,142.762924 278.720367,140.439331 
	C279.316986,141.657547 279.737579,142.634033 279.693115,143.588867 
	C279.273376,152.609634 278.888184,161.634964 278.235718,170.640335 
	C278.012146,173.726028 279.201447,174.939987 282.046265,175.052460 
z"/>
<path fill="#B588C7" opacity="1.000000" stroke="none" 
	d="
M180.939896,155.809860 
	C175.502640,155.170761 170.037201,154.693039 164.652588,153.752563 
	C163.610901,153.570618 162.233398,151.633591 162.133636,150.414291 
	C161.811646,146.479416 162.013580,142.501678 162.013580,138.222351 
	C167.690353,138.222351 173.119522,138.222351 178.637741,138.919434 
	C177.697189,145.255829 178.512909,150.642944 180.939896,155.809860 
z"/>
<path fill="#E484BF" opacity="1.000000" stroke="none" 
	d="
M238.041779,199.011902 
	C233.931152,197.719193 229.820526,196.426483 225.352097,195.072739 
	C224.994293,195.011703 224.998230,195.001434 224.906006,194.682526 
	C223.539169,193.576050 222.264557,192.788498 220.989929,192.000946 
	C220.490891,191.729675 219.991867,191.458405 219.068329,190.772568 
	C216.081451,187.227127 214.052765,183.276611 208.950516,184.046478 
	C208.950516,184.046478 209.000351,184.001221 208.894608,183.690399 
	C207.254532,180.137634 205.720184,176.895691 203.992508,173.245239 
	C204.797119,172.913559 205.940338,172.442276 207.083557,171.970993 
	C214.700378,174.726074 220.733368,179.683792 226.120514,185.571869 
	C227.791885,187.398651 229.619675,189.082321 231.969116,191.034882 
	C234.388855,193.829498 236.215317,196.420700 238.041779,199.011902 
z"/>
<path fill="#F8AE6E" opacity="1.000000" stroke="none" 
	d="
M271.652863,148.064224 
	C271.893097,149.667648 272.035767,151.467514 271.689087,153.167587 
	C270.200775,160.465683 268.062103,167.667557 270.662018,175.216293 
	C271.110352,176.518097 270.106140,178.320175 269.632263,180.554367 
	C271.199890,180.715912 272.725952,180.873154 274.649902,181.048492 
	C273.133118,183.585571 271.218475,186.104584 269.657410,188.847610 
	C270.011047,189.071640 270.007812,188.996002 269.773102,188.635254 
	C268.960663,188.931732 268.382965,189.588974 267.805267,190.246216 
	C267.351074,191.118042 266.896851,191.989853 265.882751,192.957169 
	C264.263458,191.919815 262.253723,190.752243 262.293610,189.659500 
	C262.643890,180.066711 263.359619,170.487244 263.967010,160.903839 
	C266.421356,156.674133 268.875732,152.444443 271.652863,148.064224 
z"/>
<path fill="#9A8BCB" opacity="1.000000" stroke="none" 
	d="
M337.030548,159.178253 
	C342.113770,159.477737 347.197021,159.777206 352.138733,160.068359 
	C352.471649,160.490540 352.814697,160.723694 352.842255,160.989548 
	C354.175079,173.839737 354.171387,173.802200 341.061951,174.033203 
	C338.160675,174.084335 335.265961,174.506882 332.402344,174.152451 
	C334.039062,168.907410 335.644043,164.269119 337.230499,159.624542 
	C337.269043,159.511719 337.101807,159.328598 337.030548,159.178253 
z"/>
<path fill="#FA9167" opacity="1.000000" stroke="none" 
	d="
M282.355835,174.932281 
	C279.201447,174.939987 278.012146,173.726028 278.235718,170.640335 
	C278.888184,161.634964 279.273376,152.609634 279.693115,143.588867 
	C279.737579,142.634033 279.316986,141.657547 279.032074,140.309174 
	C281.079773,138.011871 283.207489,136.096512 285.651917,134.051712 
	C286.176239,134.551620 286.748230,135.364349 286.537445,135.783005 
	C282.884705,143.038193 285.964081,150.731522 284.990295,158.142700 
	C284.756073,159.925247 284.701599,161.851990 283.954132,163.421814 
	C282.327026,166.838882 282.934235,169.154160 286.769043,170.805954 
	C285.578674,172.297989 284.122009,173.555054 282.355835,174.932281 
z"/>
<path fill="#9A8BCB" opacity="1.000000" stroke="none" 
	d="
M162.015289,173.715042 
	C159.765900,174.056931 157.522736,174.448929 155.265747,174.729782 
	C151.155029,175.241348 148.390045,172.853073 148.159348,168.664490 
	C147.758820,161.392731 148.762589,160.055588 155.849091,159.204666 
	C159.724091,158.739380 163.640350,158.617569 167.538193,158.815521 
	C164.185547,159.630707 162.709732,161.070221 163.076050,164.820267 
	C163.359604,167.722946 162.414307,170.745682 162.015289,173.715042 
z"/>
<path fill="#DA86BF" opacity="1.000000" stroke="none" 
	d="
M283.429321,189.904633 
	C282.931610,190.027985 282.745026,190.023102 282.352356,189.621796 
	C282.426453,186.490967 285.170074,182.996552 279.908508,181.971863 
	C285.993256,177.982941 292.078003,173.994019 298.881317,169.975922 
	C300.955505,169.677765 302.311127,169.408783 303.666748,169.139816 
	C304.075592,169.519669 304.484467,169.899536 304.893341,170.279388 
	C302.619354,173.885010 300.345337,177.490616 298.071350,181.096222 
	C298.071350,181.096222 298.028931,181.023682 297.859558,181.133240 
	C297.431305,181.404388 297.203522,181.601883 297.006897,181.835312 
	C297.006897,181.835312 296.559814,181.970291 296.121887,182.100769 
	C295.425018,182.395279 295.196808,182.594513 294.999329,182.828934 
	C294.999329,182.828934 294.553131,182.969528 294.117340,183.096390 
	C293.425629,183.383774 293.200928,183.580048 293.007385,183.812042 
	C293.007385,183.812042 292.554016,183.955841 292.114105,184.090027 
	C291.416840,184.386719 291.190765,184.584869 290.995911,184.818680 
	C290.995911,184.818680 290.556366,184.965820 290.113861,185.134918 
	C289.465881,185.565994 289.260406,185.827988 289.054932,186.089966 
	C287.283447,187.318787 285.511963,188.547592 283.429321,189.904633 
z"/>
<path fill="#F7C194" opacity="1.000000" stroke="none" 
	d="
M259.159546,202.378418 
	C256.864807,208.533920 254.570084,214.689423 252.275345,220.844910 
	C251.528580,220.855789 250.781799,220.866653 250.035034,220.877533 
	C248.667694,217.203125 247.300339,213.528702 246.298721,209.497726 
	C248.254974,208.939697 249.845520,208.738235 251.436050,208.536758 
	C250.968811,206.988388 250.501572,205.440033 250.034332,203.891663 
	C250.981293,201.703903 252.252670,199.595917 252.813950,197.313309 
	C254.446686,190.673340 255.795044,183.963425 257.610870,177.520477 
	C257.739990,179.699814 257.205475,181.661636 257.342682,183.575302 
	C257.792999,189.854813 255.231491,196.441284 259.159546,202.378418 
z"/>
<path fill="#AC8FD0" opacity="1.000000" stroke="none" 
	d="
M293.926910,201.692078 
	C289.843323,203.374863 285.759766,205.057648 281.349304,206.876846 
	C282.443542,202.146317 283.864716,197.279373 285.094116,192.173157 
	C290.661469,188.958847 296.420593,185.983810 302.476776,183.301468 
	C301.807251,184.414185 300.967926,185.595657 299.851044,185.989014 
	C295.916901,187.374588 294.687561,189.256073 297.683990,191.597031 
	C296.266296,195.406281 295.096588,198.549179 293.926910,201.692078 
z"/>
<path fill="#9A8BCB" opacity="1.000000" stroke="none" 
	d="
M294.291565,201.724136 
	C295.096588,198.549179 296.266296,195.406281 297.683990,191.597031 
	C294.687561,189.256073 295.916901,187.374588 299.851044,185.989014 
	C300.967926,185.595657 301.807251,184.414185 302.850342,183.252716 
	C302.926788,182.911301 302.961823,182.963379 303.213776,182.931183 
	C303.962891,182.658569 304.460022,182.418152 304.957184,182.177765 
	C307.375031,181.456421 309.792908,180.735077 312.449341,180.387909 
	C309.307648,185.619080 308.479950,191.212479 308.028107,196.914322 
	C303.570801,198.528275 299.113495,200.142227 294.291565,201.724136 
z"/>
<path fill="#928BD4" opacity="1.000000" stroke="none" 
	d="
M308.398193,196.863861 
	C308.479950,191.212479 309.307648,185.619080 312.844330,180.455292 
	C317.376740,179.419571 321.752747,178.690674 326.523010,177.904343 
	C325.887115,179.065414 324.847046,180.275665 323.829895,181.504913 
	C322.914612,182.611069 321.290070,183.706955 321.241241,184.860809 
	C320.898041,192.967743 315.120728,195.135895 308.398193,196.863861 
z"/>
<path fill="#C587C1" opacity="1.000000" stroke="none" 
	d="
M318.178650,156.882965 
	C318.047028,151.193756 318.331421,145.571854 318.654297,139.549957 
	C321.196289,138.779373 323.699738,138.408752 326.865540,138.355927 
	C331.659363,143.929031 328.843536,149.386292 327.996307,154.786316 
	C324.862427,155.507629 321.728577,156.228943 318.178650,156.882965 
z"/>
<path fill="#F8AE6E" opacity="1.000000" stroke="none" 
	d="
M238.326721,199.131317 
	C236.215317,196.420700 234.388855,193.829498 232.307983,191.006912 
	C232.050812,190.091751 232.048019,189.407959 232.126190,188.391113 
	C233.156403,189.171768 234.105698,190.285477 235.058838,191.395813 
	C240.451752,190.429611 241.898666,187.982224 240.680252,182.827896 
	C239.409821,177.453415 238.471329,171.997528 237.510941,166.555511 
	C237.348373,165.634293 237.807617,164.603378 238.006927,163.245026 
	C239.637100,166.074112 241.308060,169.249725 242.816330,172.500793 
	C243.678345,174.358856 244.275452,176.339828 244.717285,178.961517 
	C244.507095,185.763718 244.740173,191.877167 244.476547,197.969131 
	C244.430405,199.035477 242.297256,200.011490 241.127975,201.029205 
	C240.289200,200.436386 239.450439,199.843567 238.326721,199.131317 
z"/>
<path fill="#B588C7" opacity="1.000000" stroke="none" 
	d="
M328.415100,154.851105 
	C328.843536,149.386292 331.659363,143.929031 327.283661,138.426605 
	C331.136047,138.179474 335.232666,138.179474 339.662598,138.179474 
	C339.662598,143.268402 339.662598,148.283340 339.662598,153.425949 
	C336.094574,153.916885 332.464233,154.416382 328.415100,154.851105 
z"/>
<path fill="#AC8FD0" opacity="1.000000" stroke="none" 
	d="
M162.427216,173.755859 
	C162.414307,170.745682 163.359604,167.722946 163.076050,164.820267 
	C162.709732,161.070221 164.185547,159.630707 167.767700,159.131500 
	C170.853455,159.438095 173.709885,159.903336 176.528717,160.947922 
	C176.319244,165.295715 176.147415,169.064178 175.975586,172.832642 
	C171.596771,173.153976 167.217957,173.475311 162.427216,173.755859 
z"/>
<path fill="#AC8FD0" opacity="1.000000" stroke="none" 
	d="
M216.135681,203.691437 
	C213.222931,202.900284 210.127502,202.259109 207.801163,200.563019 
	C204.683838,198.290298 199.619339,196.621429 202.664688,190.713287 
	C203.376358,189.332596 202.689606,187.231125 202.873871,185.192383 
	C203.443649,184.958206 203.710968,185.118103 204.150528,185.867126 
	C205.640137,186.532883 206.882645,186.734680 208.125137,186.936462 
	C208.125137,186.936462 208.587051,187.028458 208.789642,187.148300 
	C209.017548,189.739426 209.162415,191.445053 212.701569,191.606705 
	C216.753845,191.791794 218.513397,198.345001 216.135681,203.691437 
z"/>
<path fill="#F8BB81" opacity="1.000000" stroke="none" 
	d="
M259.417236,202.159973 
	C255.231491,196.441284 257.792999,189.854813 257.342682,183.575302 
	C257.205475,181.661636 257.739990,179.699814 257.950684,177.337250 
	C257.934570,176.914444 257.961945,176.975143 258.217773,176.902496 
	C258.639740,175.838837 258.805878,174.847839 258.972046,173.856842 
	C260.419067,169.651001 261.866058,165.445160 263.640076,161.071579 
	C263.359619,170.487244 262.643890,180.066711 262.293610,189.659500 
	C262.253723,190.752243 264.263458,191.919815 265.725311,193.119202 
	C263.976837,196.104340 261.825897,199.022919 259.417236,202.159973 
z"/>
<path fill="#C587C1" opacity="1.000000" stroke="none" 
	d="
M298.453369,181.061035 
	C300.345337,177.490616 302.619354,173.885010 304.893341,170.279388 
	C304.484467,169.899536 304.075592,169.519669 303.666748,169.139816 
	C302.311127,169.408783 300.955505,169.677765 299.255066,169.950836 
	C304.344818,167.651642 309.779388,165.348358 315.521973,163.495728 
	C315.211761,167.904892 314.593567,171.863388 313.975372,175.821884 
	C308.928711,177.556534 303.882050,179.291199 298.453369,181.061035 
z"/>
<path fill="#B588C7" opacity="1.000000" stroke="none" 
	d="
M314.382019,175.766449 
	C314.593567,171.863388 315.211761,167.904892 315.915100,163.560730 
	C319.736816,162.129623 323.473389,161.084167 327.522095,160.500702 
	C327.304230,165.241058 325.188080,169.540665 328.005920,173.774124 
	C323.600159,174.419754 319.194427,175.065384 314.382019,175.766449 
z"/>
<path fill="#DA86BF" opacity="1.000000" stroke="none" 
	d="
M206.919220,171.645996 
	C205.940338,172.442276 204.797119,172.913559 203.992508,173.245239 
	C205.720184,176.895691 207.254532,180.137634 208.873627,183.716919 
	C204.868347,182.078995 200.778275,180.103714 196.263351,177.627899 
	C191.648697,173.703339 193.165466,169.396347 193.992310,165.196091 
	C198.246490,167.237732 202.500687,169.279373 206.919220,171.645996 
z"/>
<path fill="#F8BB81" opacity="1.000000" stroke="none" 
	d="
M241.159241,201.384857 
	C242.297256,200.011490 244.430405,199.035477 244.476547,197.969131 
	C244.740173,191.877167 244.507095,185.763718 244.647644,179.338684 
	C246.502472,187.102631 248.152390,195.185486 249.918320,203.580017 
	C250.501572,205.440033 250.968811,206.988388 251.436050,208.536758 
	C249.845520,208.738235 248.254974,208.939697 246.298920,209.099152 
	C244.352417,206.618256 242.771454,204.179382 241.159241,201.384857 
z"/>
<path fill="#B588C7" opacity="1.000000" stroke="none" 
	d="
M176.340866,173.004852 
	C176.147415,169.064178 176.319244,165.295715 176.755676,161.257416 
	C179.427658,161.665833 181.835052,162.344070 184.622360,163.512512 
	C185.657410,167.694977 186.312561,171.387268 186.967728,175.079559 
	C183.547195,174.445404 180.126678,173.811249 176.340866,173.004852 
z"/>
<path fill="#E484BF" opacity="1.000000" stroke="none" 
	d="
M279.603271,182.106201 
	C285.170074,182.996552 282.426453,186.490967 282.072540,189.612671 
	C281.998779,190.000000 282.000000,190.000000 281.806305,190.138031 
	C281.367584,190.483093 281.159393,190.722229 280.988098,190.993439 
	C276.137482,194.097046 271.286896,197.200638 266.436310,200.304245 
	C266.136169,199.896011 265.836029,199.487762 265.535889,199.079529 
	C267.672455,195.945892 269.809021,192.812271 271.948608,189.314728 
	C271.951660,188.950790 271.997894,188.984222 272.174438,188.834824 
	C272.561737,188.427307 272.772491,188.169189 272.983246,187.911087 
	C272.983246,187.911087 272.986145,187.986282 273.157043,187.834747 
	C273.542603,187.417114 273.757263,187.151031 273.971893,186.884918 
	C275.747284,185.336807 277.522675,183.788681 279.603271,182.106201 
z"/>
<path fill="#AC8FD0" opacity="1.000000" stroke="none" 
	d="
M328.397430,173.857437 
	C325.188080,169.540665 327.304230,165.241058 327.921692,160.578339 
	C330.747162,159.902710 333.485138,159.611450 336.626831,159.249207 
	C337.101807,159.328598 337.269043,159.511719 337.230499,159.624542 
	C335.644043,164.269119 334.039062,168.907410 332.212128,173.800980 
	C330.921539,174.017227 329.855225,173.978989 328.397430,173.857437 
z"/>
<path fill="#C587C1" opacity="1.000000" stroke="none" 
	d="
M181.274765,155.954193 
	C178.512909,150.642944 177.697189,145.255829 178.870728,139.284164 
	C180.595428,138.883881 182.176193,138.815948 183.987091,138.427307 
	C184.458969,144.030060 184.700699,149.953506 184.936676,156.331360 
	C183.823822,156.556686 182.716721,156.327606 181.274765,155.954193 
z"/>
<path fill="#C587C1" opacity="1.000000" stroke="none" 
	d="
M187.145386,175.404083 
	C186.312561,171.387268 185.657410,167.694977 185.002670,163.587723 
	C187.746185,163.786819 190.489273,164.400879 193.612335,165.105530 
	C193.165466,169.396347 191.648697,173.703339 195.933670,177.466309 
	C193.126923,177.113052 190.224976,176.420822 187.145386,175.404083 
z"/>
<path fill="#DA86BF" opacity="1.000000" stroke="none" 
	d="
M209.089874,184.352142 
	C214.052765,183.276611 216.081451,187.227127 218.819031,190.636292 
	C217.213623,190.091599 215.433029,189.268616 213.402588,188.231873 
	C211.844894,186.897995 210.537064,185.777893 209.089874,184.352142 
z"/>
<path fill="#F8AE6E" opacity="1.000000" stroke="none" 
	d="
M224.336395,144.181412 
	C224.041611,143.238708 224.035141,142.475235 224.038422,141.330383 
	C226.286316,143.419556 228.524475,145.890091 230.783417,148.701813 
	C226.031219,151.062866 227.308273,145.098267 224.336395,144.181412 
z"/>
<path fill="#8085C6" opacity="1.000000" stroke="none" 
	d="
M363.212280,193.238098 
	C363.536163,191.088226 364.200775,189.249252 364.566071,187.352631 
	C364.859924,185.827240 364.791504,184.232071 364.958435,182.295929 
	C365.505768,185.930710 368.596039,190.300568 363.212280,193.238098 
z"/>
<path fill="#8085C6" opacity="1.000000" stroke="none" 
	d="
M337.486145,192.809052 
	C342.090698,192.606689 347.154602,192.481888 352.578186,192.540283 
	C347.940369,192.777863 342.942963,192.832230 337.486145,192.809052 
z"/>
<path fill="#FA787C" opacity="1.000000" stroke="none" 
	d="
M210.820435,166.703156 
	C211.016891,167.164337 210.999130,167.339447 210.949188,167.776154 
	C209.361267,167.253052 207.805496,166.468338 206.100250,165.378281 
	C207.502563,165.520981 209.054367,165.969025 210.820435,166.703156 
z"/>
<path fill="#8085C6" opacity="1.000000" stroke="none" 
	d="
M362.921326,180.653687 
	C361.118500,180.585190 359.139160,180.207291 357.000122,179.506210 
	C358.808533,179.570129 360.776642,179.957214 362.921326,180.653687 
z"/>
<path fill="#F7C194" opacity="1.000000" stroke="none" 
	d="
M258.651001,174.013428 
	C258.805878,174.847839 258.639740,175.838837 258.186432,176.891357 
	C258.042816,176.025269 258.186371,175.097656 258.651001,174.013428 
z"/>
<path fill="#B98FCB" opacity="1.000000" stroke="none" 
	d="
M207.943878,186.606964 
	C206.882645,186.734680 205.640137,186.532883 204.222824,186.095734 
	C205.286209,185.999390 206.524414,186.138428 207.943878,186.606964 
z"/>
<path fill="#928BD4" opacity="1.000000" stroke="none" 
	d="
M330.674988,177.068024 
	C330.413239,177.487030 329.847656,177.853821 329.100067,178.038284 
	C329.402405,177.575912 329.886780,177.295868 330.674988,177.068024 
z"/>
<path fill="#AC8FD0" opacity="1.000000" stroke="none" 
	d="
M304.650818,182.113663 
	C304.460022,182.418152 303.962891,182.658569 303.184631,182.919785 
	C303.383881,182.643585 303.864166,182.346573 304.650818,182.113663 
z"/>
<path fill="#C587C1" opacity="1.000000" stroke="none" 
	d="
M297.271423,181.880386 
	C297.203522,181.601883 297.431305,181.404388 297.897766,181.150787 
	C297.915497,181.347656 297.725708,181.636566 297.271423,181.880386 
z"/>
<path fill="#F8AE6E" opacity="1.000000" stroke="none" 
	d="
M217.961884,134.722229 
	C217.769073,134.849442 217.524277,134.697708 217.142593,134.366180 
	C217.290543,134.298706 217.591949,134.384323 217.961884,134.722229 
z"/>
<path fill="#F8AE6E" opacity="1.000000" stroke="none" 
	d="
M275.274902,180.991531 
	C275.195984,180.788803 275.404755,180.544693 275.847839,180.195923 
	C275.871368,180.345383 275.698181,180.631668 275.274902,180.991531 
z"/>
<path fill="#F8AE6E" opacity="1.000000" stroke="none" 
	d="
M221.966919,138.731628 
	C221.773727,138.798050 221.531754,138.582733 221.168854,138.143158 
	C221.310532,138.126770 221.600601,138.303772 221.966919,138.731628 
z"/>
<path fill="#8085C6" opacity="1.000000" stroke="none" 
	d="
M356.821136,179.838104 
	C356.674225,179.806366 356.527924,179.725342 356.578369,179.755585 
	C356.775055,179.866867 356.821777,179.788818 356.821136,179.838104 
z"/>
<path fill="#FA787C" opacity="1.000000" stroke="none" 
	d="
M299.281860,163.841888 
	C299.209564,163.572891 299.418121,163.391129 299.857178,163.176300 
	C300.015625,163.455307 299.840576,163.717270 299.281860,163.841888 
z"/>
<path fill="#FA9167" opacity="1.000000" stroke="none" 
	d="
M224.011292,178.288345 
	C224.224457,178.191193 224.468063,178.388153 224.799271,178.831360 
	C224.645050,178.863235 224.363312,178.698196 224.011292,178.288345 
z"/>
<path fill="#928BD4" opacity="1.000000" stroke="none" 
	d="
M328.066833,177.695984 
	C327.964905,177.948669 327.745880,177.956787 327.198029,177.940460 
	C327.229340,177.761169 327.589539,177.606293 328.066833,177.695984 
z"/>
<path fill="#C587C1" opacity="1.000000" stroke="none" 
	d="
M293.269684,183.856888 
	C293.200928,183.580048 293.425629,183.383774 293.886047,183.131256 
	C293.904358,183.326752 293.718170,183.614243 293.269684,183.856888 
z"/>
<path fill="#F8AE6E" opacity="1.000000" stroke="none" 
	d="
M220.972748,137.729431 
	C220.782349,137.796555 220.541794,137.585144 220.179291,137.154266 
	C220.319473,137.136719 220.607895,137.308762 220.972748,137.729431 
z"/>
<path fill="#C587C1" opacity="1.000000" stroke="none" 
	d="
M295.265320,182.872040 
	C295.196808,182.594513 295.425018,182.395279 295.891296,182.137451 
	C295.909515,182.334152 295.720428,182.624649 295.265320,182.872040 
z"/>
<path fill="#F8AE6E" opacity="1.000000" stroke="none" 
	d="
M218.948273,135.723602 
	C218.761414,135.787521 218.524857,135.577698 218.165878,135.152771 
	C218.303131,135.136978 218.588165,135.307709 218.948273,135.723602 
z"/>
<path fill="#F8AE6E" opacity="1.000000" stroke="none" 
	d="
M219.964447,136.718536 
	C219.768967,136.792526 219.530823,136.587006 219.175537,136.162811 
	C219.319077,136.140503 219.606857,136.305466 219.964447,136.718536 
z"/>
<path fill="#8085C6" opacity="1.000000" stroke="none" 
	d="
M355.261078,192.777832 
	C355.238190,192.481873 355.483521,192.426392 355.865906,192.630310 
	C355.969696,192.720154 355.496033,192.848785 355.261078,192.777832 
z"/>
<path fill="#F8AE6E" opacity="1.000000" stroke="none" 
	d="
M222.970184,139.731873 
	C222.777374,139.800232 222.533081,139.586426 222.166260,139.148590 
	C222.307938,139.130981 222.599594,139.306030 222.970184,139.731873 
z"/>
<path fill="#F8AE6E" opacity="1.000000" stroke="none" 
	d="
M223.980804,140.735443 
	C223.792145,140.800201 223.543762,140.584290 223.168213,140.144226 
	C223.308563,140.128036 223.601913,140.306274 223.980804,140.735443 
z"/>
<path fill="#DD92C2" opacity="1.000000" stroke="none" 
	d="
M272.724976,187.991791 
	C272.772491,188.169189 272.561737,188.427307 272.146484,188.830902 
	C272.116882,188.675079 272.291779,188.373779 272.724976,187.991791 
z"/>
<path fill="#DD92C2" opacity="1.000000" stroke="none" 
	d="
M273.713867,186.977875 
	C273.757263,187.151031 273.542603,187.417114 273.119446,187.835632 
	C273.092590,187.682312 273.274231,187.376572 273.713867,186.977875 
z"/>
<path fill="#C587C1" opacity="1.000000" stroke="none" 
	d="
M289.306763,186.005615 
	C289.260406,185.827988 289.465881,185.565994 289.884949,185.171188 
	C289.918549,185.332672 289.738556,185.626953 289.306763,186.005615 
z"/>
<path fill="#C587C1" opacity="1.000000" stroke="none" 
	d="
M291.260254,184.861389 
	C291.190765,184.584869 291.416840,184.386719 291.879761,184.130524 
	C291.898438,184.325928 291.711517,184.615005 291.260254,184.861389 
z"/>
<path fill="#AC8FD0" opacity="1.000000" stroke="none" 
	d="
M200.037628,183.715057 
	C199.856476,183.833755 199.585342,183.676270 199.164749,183.321655 
	C199.308105,183.260223 199.618896,183.365005 200.037628,183.715057 
z"/>
<path fill="#8085C6" opacity="1.000000" stroke="none" 
	d="
M194.329193,198.299652 
	C195.374908,198.537094 196.585526,199.086624 197.844284,199.873581 
	C196.759644,199.611252 195.626877,199.111496 194.329193,198.299652 
z"/>
<path fill="#8085C6" opacity="1.000000" stroke="none" 
	d="
M201.775391,200.362518 
	C202.186630,200.470505 202.575470,200.883194 202.972015,201.489838 
	C202.570816,201.344940 202.161911,201.006088 201.775391,200.362518 
z"/>
<path fill="#9A8BCB" opacity="1.000000" stroke="none" 
	d="
M222.030396,209.314316 
	C222.540939,209.299423 223.152969,209.534195 223.892151,209.990417 
	C223.390167,209.995895 222.761017,209.779938 222.030396,209.314316 
z"/>
<path fill="#9A8BCB" opacity="1.000000" stroke="none" 
	d="
M225.802505,211.460373 
	C226.391556,211.484756 227.078049,211.789246 227.868210,212.371704 
	C227.281235,212.346619 226.590591,212.043533 225.802505,211.460373 
z"/>
<path fill="#9A8BCB" opacity="1.000000" stroke="none" 
	d="
M228.883392,213.417374 
	C229.431381,213.460495 230.098679,213.760208 230.860107,214.334106 
	C230.303726,214.296829 229.653214,213.985397 228.883392,213.417374 
z"/>
<path fill="#000000" opacity="1.000000" stroke="none" 
	d="
M95.048615,295.414307 
	C94.339958,290.844971 96.304100,288.549927 100.335052,288.486755 
	C104.260521,288.425262 108.392990,288.339111 112.039757,289.501923 
	C113.773376,290.054718 115.689484,293.588593 115.503738,295.584045 
	C115.326485,297.488342 112.827988,299.984344 110.806175,300.714355 
	C107.976677,301.735992 104.542656,300.947632 101.547104,301.674622 
	C96.134277,302.988281 95.249390,299.933868 95.048615,295.414307 
z"/>
<path fill="#000000" opacity="1.000000" stroke="none" 
	d="
M96.559647,267.326660 
	C100.110931,267.122589 103.258522,266.885376 106.378937,267.081238 
	C110.990189,267.370667 113.143677,269.838593 113.009445,273.971283 
	C112.858063,278.632233 109.783295,279.143280 106.163177,279.017883 
	C105.173248,278.983612 104.181038,279.016479 103.189880,279.016205 
	C94.429153,279.013702 92.652855,276.107056 96.559647,267.326660 
z"/>
<path fill="#000000" opacity="1.000000" stroke="none" 
	d="
M299.662109,282.281372 
	C304.700439,280.375336 308.624786,281.193207 312.878510,286.787231 
	C307.979492,287.383484 304.276611,288.064575 300.560120,288.149414 
	C299.409637,288.175690 297.739319,286.791351 297.239258,285.645874 
	C296.955627,284.996124 298.562134,283.521210 299.662109,282.281372 
z"/>
<path fill="#000000" opacity="1.000000" stroke="none" 
	d="
M199.122864,291.271484 
	C199.443283,297.604309 195.176590,302.239319 189.269516,302.283813 
	C185.486969,302.312317 180.202194,296.477814 180.026825,292.079712 
	C179.810120,286.645325 183.712265,282.155609 188.805054,281.979736 
	C195.713394,281.741089 199.003571,284.581696 199.122864,291.271484 
z"/>
<path fill="#000000" opacity="1.000000" stroke="none" 
	d="
M407.556793,284.406738 
	C409.162109,287.195831 408.018280,287.987457 405.606537,287.979645 
	C401.303772,287.965637 397.000977,287.975677 391.022522,287.975677 
	C393.114655,285.505646 394.203705,283.357361 395.951630,282.329651 
	C400.023132,279.935730 403.907684,281.154510 407.556793,284.406738 
z"/>
<path fill="#000000" opacity="1.000000" stroke="none" 
	d="
M157.321640,294.970459 
	C155.268188,299.077576 153.546051,302.477966 148.138245,302.217529 
	C142.908173,301.965637 138.539413,298.887909 138.019150,293.668091 
	C137.378510,287.240540 140.929276,282.472382 146.710495,281.996796 
	C155.293503,281.290741 158.886810,285.489777 157.321640,294.970459 
z"/>
<path fill="#DD92C2" opacity="1.000000" stroke="none" 
	d="
M220.999390,192.291855 
	C222.264557,192.788498 223.539169,193.576050 224.901154,194.684296 
	C223.661972,194.197571 222.335403,193.390167 220.999390,192.291855 
z"/>
<path fill="#928BD4" opacity="1.000000" stroke="none" 
	d="
M170.831390,179.236542 
	C172.106430,179.195145 173.235718,179.375519 174.357025,179.596375 
	C186.202194,181.929565 186.201843,181.931366 187.984741,194.531235 
	C183.614426,194.035522 179.271011,192.920044 174.858719,192.278000 
	C171.199509,191.745529 170.028671,189.856842 171.722626,186.873276 
	C173.422318,183.879639 172.403687,181.743668 170.831390,179.236542 
z"/>
<path fill="#000000" opacity="1.000000" stroke="none" 
	d="
M267.981140,190.469940 
	C268.382965,189.588974 268.960663,188.931732 269.810852,188.637817 
	C269.441223,189.565338 268.799103,190.129517 267.981140,190.469940 
z"/>
<path fill="#DA86BF" opacity="1.000000" stroke="none" 
	d="
M281.184845,190.857773 
	C281.159393,190.722229 281.367584,190.483093 281.806641,190.137329 
	C281.835571,190.275055 281.629211,190.516205 281.184845,190.857773 
z"/>
</svg>